# Blender v2.74 (sub 0) OBJ File: 'sphere2.blend'
# www.blender.org
mtllib sphere2.mtl
o 球
v -0.382683 0.923880 0.000000
v -0.707107 0.707107 0.000000
v -0.923880 0.382683 0.000000
v -1.000000 -0.000000 0.000000
v -0.923880 -0.382684 0.000000
v -0.707107 -0.707107 0.000000
v -0.382683 -0.923880 0.000000
v -0.353553 0.923880 -0.146447
v -0.653281 0.707107 -0.270598
v -0.853553 0.382683 -0.353553
v -0.923880 -0.000000 -0.382683
v -0.853553 -0.382684 -0.353553
v -0.653281 -0.707107 -0.270598
v -0.353553 -0.923880 -0.146447
v -0.270598 0.923880 -0.270598
v -0.500000 0.707107 -0.500000
v -0.653281 0.382683 -0.653281
v -0.707107 -0.000000 -0.707107
v -0.653281 -0.382684 -0.653281
v -0.500000 -0.707107 -0.500000
v -0.270598 -0.923880 -0.270598
v -0.000000 -1.000000 0.000000
v -0.146447 0.923880 -0.353553
v -0.270598 0.707107 -0.653281
v -0.353553 0.382683 -0.853553
v -0.382683 -0.000000 -0.923879
v -0.353553 -0.382684 -0.853553
v -0.270598 -0.707107 -0.653281
v -0.146447 -0.923880 -0.353553
v -0.000000 0.923880 -0.382683
v -0.000000 0.707107 -0.707107
v -0.000000 0.382683 -0.923879
v -0.000000 -0.000000 -1.000000
v -0.000000 -0.382684 -0.923879
v -0.000000 -0.707107 -0.707107
v -0.000000 -0.923880 -0.382683
v 0.146446 0.923880 -0.353553
v 0.270598 0.707107 -0.653281
v 0.353553 0.382683 -0.853553
v 0.382683 -0.000000 -0.923879
v 0.353553 -0.382684 -0.853553
v 0.270598 -0.707107 -0.653281
v 0.146446 -0.923880 -0.353553
v -0.000000 1.000000 0.000000
v 0.270598 0.923880 -0.270598
v 0.500000 0.707107 -0.500000
v 0.653281 0.382683 -0.653281
v 0.707107 -0.000000 -0.707106
v 0.653281 -0.382684 -0.653281
v 0.500000 -0.707107 -0.500000
v 0.270598 -0.923880 -0.270598
v 0.353553 0.923880 -0.146446
v 0.653281 0.707107 -0.270598
v 0.853553 0.382683 -0.353553
v 0.923879 -0.000000 -0.382683
v 0.853553 -0.382684 -0.353553
v 0.653281 -0.707107 -0.270598
v 0.353553 -0.923880 -0.146446
v 0.382683 0.923880 0.000000
v 0.707106 0.707107 0.000000
v 0.923879 0.382683 0.000000
v 1.000000 -0.000000 0.000000
v 0.923879 -0.382684 0.000000
v 0.707106 -0.707107 0.000000
v 0.382683 -0.923880 0.000000
v 0.353553 0.923880 0.146447
v 0.653281 0.707107 0.270598
v 0.853553 0.382683 0.353554
v 0.923879 -0.000000 0.382684
v 0.853553 -0.382684 0.353554
v 0.653281 -0.707107 0.270598
v 0.353553 -0.923880 0.146447
v 0.270598 0.923880 0.270598
v 0.499999 0.707107 0.500000
v 0.653281 0.382683 0.653282
v 0.707106 -0.000000 0.707107
v 0.653281 -0.382684 0.653282
v 0.499999 -0.707107 0.500000
v 0.270598 -0.923880 0.270598
v 0.146446 0.923880 0.353553
v 0.270597 0.707107 0.653281
v 0.353553 0.382683 0.853553
v 0.382683 -0.000000 0.923879
v 0.353553 -0.382684 0.853553
v 0.270597 -0.707107 0.653281
v 0.146446 -0.923880 0.353553
v -0.000000 0.923880 0.382683
v -0.000000 0.707107 0.707106
v -0.000001 0.382683 0.923879
v -0.000001 -0.000000 1.000000
v -0.000001 -0.382684 0.923879
v -0.000000 -0.707107 0.707106
v -0.000000 -0.923880 0.382683
v -0.146447 0.923880 0.353553
v -0.270598 0.707107 0.653281
v -0.353554 0.382683 0.853553
v -0.382684 -0.000000 0.923879
v -0.353554 -0.382684 0.853553
v -0.270598 -0.707107 0.653281
v -0.146447 -0.923880 0.353553
v -0.270598 0.923880 0.270598
v -0.500000 0.707107 0.499999
v -0.653282 0.382683 0.653281
v -0.707107 -0.000000 0.707106
v -0.653282 -0.382684 0.653281
v -0.500000 -0.707107 0.499999
v -0.270598 -0.923880 0.270598
v -0.353553 0.923880 0.146446
v -0.653281 0.707107 0.270598
v -0.853553 0.382683 0.353553
v -0.923880 -0.000000 0.382683
v -0.853553 -0.382684 0.353553
v -0.653281 -0.707107 0.270598
v -0.353553 -0.923880 0.146446
vt 0.345588 0.127234
vt 0.299442 0.133098
vt 0.304127 0.066348
vt 0.361332 0.188558
vt 0.302410 0.200022
vt 0.376886 0.248998
vt 0.314615 0.265721
vt 0.392329 0.309168
vt 0.336288 0.328645
vt 0.408073 0.369073
vt 0.366793 0.387273
vt 0.427049 0.429336
vt 0.404899 0.440729
vt 0.701649 0.063202
vt 0.717363 0.127028
vt 0.671834 0.129551
vt 0.726144 0.192121
vt 0.667086 0.192048
vt 0.726144 0.257980
vt 0.662425 0.253720
vt 0.716631 0.323410
vt 0.657763 0.315391
vt 0.698126 0.387066
vt 0.653015 0.377888
vt 0.672516 0.448134
vt 0.648076 0.441848
vt 0.626723 0.120374
vt 0.652333 0.059305
vt 0.608218 0.184029
vt 0.598705 0.249460
vt 0.598705 0.315318
vt 0.607486 0.380412
vt 0.623200 0.444237
vt 0.957239 0.063202
vt 0.972953 0.127028
vt 0.927424 0.129552
vt 0.981733 0.192121
vt 0.922676 0.192048
vt 0.981734 0.257980
vt 0.918014 0.253720
vt 0.972221 0.323410
vt 0.913353 0.315391
vt 0.953716 0.387066
vt 0.908605 0.377888
vt 0.928106 0.448134
vt 0.903666 0.441848
vt 0.932363 0.065592
vt 0.882312 0.120374
vt 0.863808 0.184029
vt 0.854295 0.249460
vt 0.854295 0.315318
vt 0.863076 0.380412
vt 0.878790 0.444238
vt 0.829444 0.063202
vt 0.845158 0.127028
vt 0.799629 0.129551
vt 0.853938 0.192121
vt 0.794881 0.192048
vt 0.853939 0.257980
vt 0.790219 0.253720
vt 0.844426 0.323410
vt 0.785558 0.315391
vt 0.825921 0.387066
vt 0.780810 0.377888
vt 0.800311 0.448134
vt 0.775871 0.441848
vt 0.754517 0.120374
vt 0.780128 0.059305
vt 0.736013 0.184029
vt 0.726500 0.249460
vt 0.726500 0.315318
vt 0.735281 0.380412
vt 0.750995 0.444238
vt 0.299085 0.131160
vt 0.253712 0.126358
vt 0.268836 0.063973
vt 0.297324 0.196860
vt 0.239018 0.187322
vt 0.286756 0.261893
vt 0.224563 0.247457
vt 0.266816 0.324940
vt 0.210144 0.307464
vt 0.238028 0.384689
vt 0.195470 0.367494
vt 0.200428 0.440328
vt 0.177629 0.429088
vt 0.210620 0.110068
vt 0.182148 0.169988
vt 0.162299 0.233116
vt 0.151892 0.298207
vt 0.151962 0.362170
vt 0.152670 0.426052
vt 0.053319 0.054071
vt 0.089069 0.110046
vt 0.046324 0.127234
vt 0.118586 0.169484
vt 0.062069 0.188558
vt 0.139919 0.232499
vt 0.077623 0.248998
vt 0.093066 0.309168
vt 0.108811 0.369073
vt 0.127786 0.429336
vt 0.030290 0.064431
vt 0.000178 0.133099
vt 0.003146 0.200022
vt 0.015353 0.265721
vt 0.037026 0.328645
vt 0.067530 0.387273
vt 0.105637 0.440729
vt 0.118836 0.619588
vt 0.073307 0.622112
vt 0.078246 0.558152
vt 0.127617 0.684682
vt 0.068559 0.684609
vt 0.127617 0.750540
vt 0.063897 0.746280
vt 0.118104 0.815971
vt 0.059236 0.807952
vt 0.099599 0.879626
vt 0.054488 0.870448
vt 0.073989 0.940695
vt 0.049549 0.934408
vt 0.028196 0.612934
vt 0.053806 0.551866
vt 0.009691 0.676590
vt 0.000178 0.742020
vt 0.000178 0.807879
vt 0.008959 0.872972
vt 0.024673 0.936798
vt 0.593054 0.065598
vt 0.598349 0.131161
vt 0.552975 0.126358
vt 0.596587 0.196860
vt 0.538282 0.187323
vt 0.586019 0.261893
vt 0.523826 0.247458
vt 0.566079 0.324941
vt 0.509407 0.307464
vt 0.537291 0.384689
vt 0.494732 0.367494
vt 0.499690 0.440329
vt 0.476891 0.429088
vt 0.568099 0.063973
vt 0.509883 0.110068
vt 0.481411 0.169988
vt 0.461562 0.233116
vt 0.451155 0.298207
vt 0.451225 0.362170
vt 0.451933 0.426052
vt 0.313217 0.000178
vt 0.329554 0.064431
vt 0.446549 0.491683
vt 0.681886 0.000178
vt 0.676773 0.065592
vt 0.642963 0.507261
vt 0.937475 0.000178
vt 0.898553 0.507261
vt 0.907923 0.059306
vt 0.809680 0.000178
vt 0.804568 0.065592
vt 0.770758 0.507261
vt 0.284366 0.000178
vt 0.293790 0.065598
vt 0.158771 0.492382
vt 0.245701 0.053848
vt 0.013952 0.000178
vt 0.147287 0.491683
vt 0.004863 0.066349
vt 0.083359 0.492739
vt 0.103122 0.555763
vt 0.044436 0.999822
vt 0.583629 0.000178
vt 0.458033 0.492382
vt 0.544965 0.053848
vt 0.352582 0.054071
vt 0.388332 0.110047
vt 0.417849 0.169484
vt 0.439182 0.232499
vn -0.718800 -0.695200 0.000000
vn -0.664100 -0.695200 -0.275100
vn -0.372400 -0.915200 -0.154200
vn -0.927300 -0.374300 0.000000
vn -0.856700 -0.374300 -0.354800
vn -1.000000 0.000000 0.000000
vn -0.923900 0.000000 -0.382700
vn -0.927300 0.374300 0.000000
vn -0.856700 0.374300 -0.354800
vn -0.718800 0.695200 0.000000
vn -0.664100 0.695200 -0.275100
vn -0.403100 0.915200 0.000000
vn -0.372400 0.915200 -0.154200
vn -0.508300 -0.695200 -0.508300
vn -0.655700 -0.374300 -0.655700
vn -0.707100 0.000000 -0.707100
vn -0.655700 0.374300 -0.655700
vn -0.508300 0.695200 -0.508300
vn -0.285000 0.915200 -0.285000
vn -0.275100 -0.695200 -0.664100
vn -0.154200 -0.915200 -0.372400
vn -0.354800 -0.374300 -0.856700
vn -0.382700 0.000000 -0.923900
vn -0.354800 0.374300 -0.856700
vn -0.275100 0.695200 -0.664100
vn -0.154200 0.915200 -0.372400
vn 0.000000 -0.695200 -0.718800
vn 0.000000 -0.374300 -0.927300
vn 0.000000 0.000000 -1.000000
vn 0.000000 0.374300 -0.927300
vn 0.000000 0.695200 -0.718800
vn 0.000000 0.915200 -0.403100
vn 0.000000 -0.915200 -0.403100
vn 0.275100 -0.695200 -0.664100
vn 0.354800 -0.374300 -0.856700
vn 0.382700 0.000000 -0.923900
vn 0.354800 0.374300 -0.856700
vn 0.275100 0.695200 -0.664100
vn 0.154200 0.915200 -0.372400
vn 0.154200 -0.915200 -0.372400
vn 0.508300 -0.695200 -0.508300
vn 0.655700 -0.374300 -0.655700
vn 0.707100 0.000000 -0.707100
vn 0.655700 0.374300 -0.655700
vn 0.508300 0.695200 -0.508300
vn 0.285000 0.915200 -0.285000
vn 0.664100 -0.695200 -0.275100
vn 0.372400 -0.915200 -0.154200
vn 0.856700 -0.374300 -0.354800
vn 0.923900 0.000000 -0.382700
vn 0.856700 0.374300 -0.354800
vn 0.664100 0.695200 -0.275100
vn 0.372400 0.915200 -0.154200
vn 0.718800 -0.695200 0.000000
vn 0.403100 -0.915200 0.000000
vn 0.927300 -0.374300 0.000000
vn 1.000000 0.000000 0.000000
vn 0.927300 0.374300 0.000000
vn 0.718800 0.695200 0.000000
vn 0.403100 0.915200 0.000000
vn 0.664100 -0.695200 0.275100
vn 0.856700 -0.374300 0.354800
vn 0.923900 0.000000 0.382700
vn 0.856700 0.374300 0.354800
vn 0.664100 0.695200 0.275100
vn 0.372400 0.915200 0.154200
vn 0.372400 -0.915200 0.154200
vn 0.508300 -0.695200 0.508300
vn 0.655700 -0.374300 0.655700
vn 0.707100 0.000000 0.707100
vn 0.655700 0.374300 0.655700
vn 0.508300 0.695200 0.508300
vn 0.285000 0.915200 0.285000
vn 0.285000 -0.915200 0.285000
vn 0.275100 -0.695200 0.664100
vn 0.354800 -0.374300 0.856700
vn 0.382700 0.000000 0.923900
vn 0.354800 0.374300 0.856700
vn 0.275100 0.695200 0.664100
vn 0.154200 0.915200 0.372400
vn 0.000000 -0.695200 0.718800
vn 0.000000 -0.915200 0.403100
vn 0.000000 -0.374300 0.927300
vn 0.000000 0.000000 1.000000
vn 0.000000 0.374300 0.927300
vn 0.000000 0.695200 0.718800
vn 0.000000 0.915200 0.403100
vn -0.275100 -0.695200 0.664100
vn -0.154200 -0.915200 0.372400
vn -0.354800 -0.374300 0.856700
vn -0.382700 0.000000 0.923900
vn -0.354800 0.374300 0.856700
vn -0.275100 0.695200 0.664100
vn -0.154200 0.915200 0.372400
vn -0.508300 -0.695200 0.508300
vn -0.655700 -0.374300 0.655700
vn -0.707100 0.000000 0.707100
vn -0.655700 0.374300 0.655700
vn -0.508300 0.695200 0.508300
vn -0.285000 0.915200 0.285000
vn -0.285000 -0.915200 0.285000
vn -0.664100 -0.695200 0.275100
vn -0.856700 -0.374300 0.354800
vn -0.923900 0.000000 0.382700
vn -0.856700 0.374300 0.354800
vn -0.664100 0.695200 0.275100
vn -0.372400 0.915200 0.154200
vn 0.000000 -1.000000 0.000000
vn -0.403100 -0.915200 0.000000
vn 0.000000 1.000000 0.000000
vn -0.285000 -0.915200 -0.285000
vn 0.285000 -0.915200 -0.285000
vn 0.154200 -0.915200 0.372400
vn -0.372400 -0.915200 0.154200
usemtl マテリアル
s 1
f 6/1/1 13/2/2 14/3/3
f 6/1/1 5/4/4 12/5/5
f 4/6/6 11/7/7 12/5/5
f 3/8/8 10/9/9 11/7/7
f 3/8/8 2/10/10 9/11/11
f 1/12/12 8/13/13 9/11/11
f 14/14/3 13/15/2 20/16/14
f 12/17/5 19/18/15 20/16/14
f 11/19/7 18/20/16 19/18/15
f 10/21/9 17/22/17 18/20/16
f 9/23/11 16/24/18 17/22/17
f 8/25/13 15/26/19 16/24/18
f 20/16/14 28/27/20 29/28/21
f 19/18/15 27/29/22 28/27/20
f 19/18/15 18/20/16 26/30/23
f 17/22/17 25/31/24 26/30/23
f 16/24/18 24/32/25 25/31/24
f 15/26/19 23/33/26 24/32/25
f 29/34/21 28/35/20 35/36/27
f 27/37/22 34/38/28 35/36/27
f 26/39/23 33/40/29 34/38/28
f 25/41/24 32/42/30 33/40/29
f 25/41/24 24/43/25 31/44/31
f 23/45/26 30/46/32 31/44/31
f 36/47/33 35/36/27 42/48/34
f 34/38/28 41/49/35 42/48/34
f 34/38/28 33/40/29 40/50/36
f 32/42/30 39/51/37 40/50/36
f 32/42/30 31/44/31 38/52/38
f 30/46/32 37/53/39 38/52/38
f 43/54/40 42/55/34 50/56/41
f 41/57/35 49/58/42 50/56/41
f 41/57/35 40/59/36 48/60/43
f 39/61/37 47/62/44 48/60/43
f 38/63/38 46/64/45 47/62/44
f 38/63/38 37/65/39 45/66/46
f 50/56/41 57/67/47 58/68/48
f 50/56/41 49/58/42 56/69/49
f 48/60/43 55/70/50 56/69/49
f 47/62/44 54/71/51 55/70/50
f 46/64/45 53/72/52 54/71/51
f 46/64/45 45/66/46 52/73/53
f 57/74/47 64/75/54 65/76/55
f 57/74/47 56/77/49 63/78/56
f 55/79/50 62/80/57 63/78/56
f 54/81/51 61/82/58 62/80/57
f 53/83/52 60/84/59 61/82/58
f 52/85/53 59/86/60 60/84/59
f 65/76/55 64/75/54 71/87/61
f 63/78/56 70/88/62 71/87/61
f 62/80/57 69/89/63 70/88/62
f 62/80/57 61/82/58 68/90/64
f 60/84/59 67/91/65 68/90/64
f 60/84/59 59/86/60 66/92/66
f 72/93/67 71/94/61 78/95/68
f 71/94/61 70/96/62 77/97/69
f 69/98/63 76/99/70 77/97/69
f 68/90/64 75/100/71 76/99/70
f 67/91/65 74/101/72 75/100/71
f 66/92/66 73/102/73 74/101/72
f 79/103/74 78/95/68 85/104/75
f 78/95/68 77/97/69 84/105/76
f 76/99/70 83/106/77 84/105/76
f 75/100/71 82/107/78 83/106/77
f 74/101/72 81/108/79 82/107/78
f 74/101/72 73/102/73 80/109/80
f 85/110/75 92/111/81 93/112/82
f 84/113/76 91/114/83 92/111/81
f 83/115/77 90/116/84 91/114/83
f 83/115/77 82/117/78 89/118/85
f 82/117/78 81/119/79 88/120/86
f 81/119/79 80/121/80 87/122/87
f 92/111/81 99/123/88 100/124/89
f 92/111/81 91/114/83 98/125/90
f 90/116/84 97/126/91 98/125/90
f 89/118/85 96/127/92 97/126/91
f 88/120/86 95/128/93 96/127/92
f 88/120/86 87/122/87 94/129/94
f 100/130/89 99/131/88 106/132/95
f 99/131/88 98/133/90 105/134/96
f 97/135/91 104/136/97 105/134/96
f 97/135/91 96/137/92 103/138/98
f 95/139/93 102/140/99 103/138/98
f 94/141/94 101/142/100 102/140/99
f 107/143/101 106/132/95 113/144/102
f 106/132/95 105/134/96 112/145/103
f 104/136/97 111/146/104 112/145/103
f 104/136/97 103/138/98 110/147/105
f 103/138/98 102/140/99 109/148/106
f 102/140/99 101/142/100 108/149/107
f 22/150/108 7/151/109 14/3/3
f 1/12/12 44/152/110 8/13/13
f 22/153/108 14/14/3 21/154/111
f 8/25/13 44/155/110 15/26/19
f 22/153/108 21/154/111 29/28/21
f 15/26/19 44/155/110 23/33/26
f 22/156/108 29/34/21 36/47/33
f 23/45/26 44/157/110 30/46/32
f 22/156/108 36/47/33 43/158/40
f 30/46/32 44/157/110 37/53/39
f 22/159/108 43/54/40 51/160/112
f 37/65/39 44/161/110 45/66/46
f 22/159/108 51/160/112 58/68/48
f 45/66/46 44/161/110 52/73/53
f 22/162/108 58/163/48 65/76/55
f 52/85/53 44/164/110 59/86/60
f 22/162/108 65/76/55 72/165/67
f 59/86/60 44/164/110 66/92/66
f 22/166/108 72/93/67 79/103/74
f 66/92/66 44/167/110 73/102/73
f 22/166/108 79/103/74 86/168/113
f 73/102/73 44/167/110 80/109/80
f 22/169/108 86/170/113 93/112/82
f 80/121/80 44/171/110 87/122/87
f 22/169/108 93/112/82 100/124/89
f 87/122/87 44/171/110 94/129/94
f 22/172/108 100/130/89 107/143/101
f 94/141/94 44/173/110 101/142/100
f 22/172/108 107/143/101 114/174/114
f 101/142/100 44/173/110 108/149/107
f 22/150/108 114/175/114 7/151/109
f 113/176/102 6/1/1 7/151/109
f 112/177/103 5/4/4 6/1/1
f 111/178/104 4/6/6 5/4/4
f 111/178/104 110/147/105 3/8/8
f 110/147/105 109/148/106 2/10/10
f 109/148/106 108/149/107 1/12/12
f 108/149/107 44/152/110 1/12/12
f 7/151/109 6/1/1 14/3/3
f 13/2/2 6/1/1 12/5/5
f 5/4/4 4/6/6 12/5/5
f 4/6/6 3/8/8 11/7/7
f 10/9/9 3/8/8 9/11/11
f 2/10/10 1/12/12 9/11/11
f 21/154/111 14/14/3 20/16/14
f 13/15/2 12/17/5 20/16/14
f 12/17/5 11/19/7 19/18/15
f 11/19/7 10/21/9 18/20/16
f 10/21/9 9/23/11 17/22/17
f 9/23/11 8/25/13 16/24/18
f 21/154/111 20/16/14 29/28/21
f 20/16/14 19/18/15 28/27/20
f 27/29/22 19/18/15 26/30/23
f 18/20/16 17/22/17 26/30/23
f 17/22/17 16/24/18 25/31/24
f 16/24/18 15/26/19 24/32/25
f 36/47/33 29/34/21 35/36/27
f 28/35/20 27/37/22 35/36/27
f 27/37/22 26/39/23 34/38/28
f 26/39/23 25/41/24 33/40/29
f 32/42/30 25/41/24 31/44/31
f 24/43/25 23/45/26 31/44/31
f 43/158/40 36/47/33 42/48/34
f 35/36/27 34/38/28 42/48/34
f 41/49/35 34/38/28 40/50/36
f 33/40/29 32/42/30 40/50/36
f 39/51/37 32/42/30 38/52/38
f 31/44/31 30/46/32 38/52/38
f 51/160/112 43/54/40 50/56/41
f 42/55/34 41/57/35 50/56/41
f 49/58/42 41/57/35 48/60/43
f 40/59/36 39/61/37 48/60/43
f 39/61/37 38/63/38 47/62/44
f 46/64/45 38/63/38 45/66/46
f 51/160/112 50/56/41 58/68/48
f 57/67/47 50/56/41 56/69/49
f 49/58/42 48/60/43 56/69/49
f 48/60/43 47/62/44 55/70/50
f 47/62/44 46/64/45 54/71/51
f 53/72/52 46/64/45 52/73/53
f 58/163/48 57/74/47 65/76/55
f 64/75/54 57/74/47 63/78/56
f 56/77/49 55/79/50 63/78/56
f 55/79/50 54/81/51 62/80/57
f 54/81/51 53/83/52 61/82/58
f 53/83/52 52/85/53 60/84/59
f 72/165/67 65/76/55 71/87/61
f 64/75/54 63/78/56 71/87/61
f 63/78/56 62/80/57 70/88/62
f 69/89/63 62/80/57 68/90/64
f 61/82/58 60/84/59 68/90/64
f 67/91/65 60/84/59 66/92/66
f 79/103/74 72/93/67 78/95/68
f 78/95/68 71/94/61 77/97/69
f 70/96/62 69/98/63 77/97/69
f 69/98/63 68/90/64 76/99/70
f 68/90/64 67/91/65 75/100/71
f 67/91/65 66/92/66 74/101/72
f 86/168/113 79/103/74 85/104/75
f 85/104/75 78/95/68 84/105/76
f 77/97/69 76/99/70 84/105/76
f 76/99/70 75/100/71 83/106/77
f 75/100/71 74/101/72 82/107/78
f 81/108/79 74/101/72 80/109/80
f 86/170/113 85/110/75 93/112/82
f 85/110/75 84/113/76 92/111/81
f 84/113/76 83/115/77 91/114/83
f 90/116/84 83/115/77 89/118/85
f 89/118/85 82/117/78 88/120/86
f 88/120/86 81/119/79 87/122/87
f 93/112/82 92/111/81 100/124/89
f 99/123/88 92/111/81 98/125/90
f 91/114/83 90/116/84 98/125/90
f 90/116/84 89/118/85 97/126/91
f 89/118/85 88/120/86 96/127/92
f 95/128/93 88/120/86 94/129/94
f 107/143/101 100/130/89 106/132/95
f 106/132/95 99/131/88 105/134/96
f 98/133/90 97/135/91 105/134/96
f 104/136/97 97/135/91 103/138/98
f 96/137/92 95/139/93 103/138/98
f 95/139/93 94/141/94 102/140/99
f 114/174/114 107/143/101 113/144/102
f 113/144/102 106/132/95 112/145/103
f 105/134/96 104/136/97 112/145/103
f 111/146/104 104/136/97 110/147/105
f 110/147/105 103/138/98 109/148/106
f 109/148/106 102/140/99 108/149/107
f 114/175/114 113/176/102 7/151/109
f 113/176/102 112/177/103 6/1/1
f 112/177/103 111/178/104 5/4/4
f 4/6/6 111/178/104 3/8/8
f 3/8/8 110/147/105 2/10/10
f 2/10/10 109/148/106 1/12/12
