# Blender v2.74 (sub 0) OBJ File: 'star.blend'
# www.blender.org
mtllib star.mtl
o 円柱
v 0.000000 1.000000 -0.080156
v 0.000000 1.000000 0.080156
v 0.293893 0.404509 -0.080156
v 0.293893 0.404509 0.080156
v 0.951057 0.309017 -0.080156
v 0.951057 0.309017 0.080156
v 0.475528 -0.154509 -0.080156
v 0.475528 -0.154509 0.080156
v 0.587785 -0.809017 -0.080156
v 0.587785 -0.809017 0.080156
v -0.000000 -0.500000 -0.080156
v -0.000000 -0.500000 0.080156
v -0.587785 -0.809017 -0.080156
v -0.587785 -0.809017 0.080156
v -0.475528 -0.154509 -0.080156
v -0.475528 -0.154509 0.080156
v -0.951056 0.309017 -0.080156
v -0.951056 0.309017 0.080156
v -0.293892 0.404509 -0.080156
v -0.293892 0.404509 0.080156
v -0.000000 1.090029 -0.000000
v 0.320352 0.440926 -0.000000
v 1.036679 0.336838 -0.000000
v 0.518340 -0.168419 0.000000
v 0.640703 -0.881852 0.000000
v -0.000000 -0.545015 0.000000
v -0.640703 -0.881852 0.000000
v -0.518340 -0.168419 0.000000
v -1.036679 0.336838 -0.000000
v -0.320351 0.440926 -0.000000
vn 0.803000 0.396300 0.445100
vn 0.128800 0.886200 0.445100
vn 0.625000 -0.641200 0.445100
vn 0.882600 0.151400 0.445100
vn -0.416700 -0.792600 0.445100
vn 0.416700 -0.792600 0.445100
vn -0.882600 0.151400 0.445100
vn -0.625000 -0.641200 0.445100
vn 0.000000 0.000000 1.000000
vn -0.803000 0.396300 0.445100
vn -0.128800 0.886200 0.445100
vn -0.000000 -0.000000 -1.000000
vn -0.128800 0.886200 -0.445100
vn -0.803000 0.396300 -0.445100
vn -0.625000 -0.641200 -0.445100
vn -0.882600 0.151400 -0.445100
vn 0.416700 -0.792600 -0.445100
vn -0.416700 -0.792600 -0.445100
vn 0.882600 0.151400 -0.445100
vn 0.625000 -0.641200 -0.445100
vn 0.128800 0.886200 -0.445100
vn 0.803000 0.396300 -0.445100
usemtl マテリアル
s off
f 2//1 4//1 22//1
f 22//2 4//2 6//2
f 6//3 8//3 24//3
f 24//4 8//4 10//4
f 10//5 12//5 26//5
f 26//6 12//6 14//6
f 14//7 16//7 28//7
f 28//8 16//8 18//8
f 4//9 20//9 12//9
f 30//10 20//10 2//10
f 18//11 20//11 30//11
f 3//12 11//12 15//12
f 17//13 29//13 30//13
f 30//14 21//14 1//14
f 28//15 29//15 17//15
f 13//16 27//16 28//16
f 26//17 27//17 13//17
f 9//18 25//18 26//18
f 24//19 25//19 9//19
f 5//20 23//20 24//20
f 22//21 23//21 5//21
f 1//22 21//22 22//22
f 21//1 2//1 22//1
f 23//2 22//2 6//2
f 23//3 6//3 24//3
f 25//4 24//4 10//4
f 25//5 10//5 26//5
f 27//6 26//6 14//6
f 27//7 14//7 28//7
f 29//8 28//8 18//8
f 8//9 6//9 4//9
f 12//9 10//9 8//9
f 16//9 14//9 12//9
f 20//9 18//9 16//9
f 4//9 2//9 20//9
f 12//9 8//9 4//9
f 20//9 16//9 12//9
f 21//10 30//10 2//10
f 29//11 18//11 30//11
f 15//12 17//12 19//12
f 19//12 1//12 3//12
f 3//12 5//12 7//12
f 7//12 9//12 11//12
f 11//12 13//12 15//12
f 15//12 19//12 3//12
f 3//12 7//12 11//12
f 19//13 17//13 30//13
f 19//14 30//14 1//14
f 15//15 28//15 17//15
f 15//16 13//16 28//16
f 11//17 26//17 13//17
f 11//18 9//18 26//18
f 7//19 24//19 9//19
f 7//20 5//20 24//20
f 3//21 22//21 5//21
f 3//22 1//22 22//22
